<?xml version="1.0" encoding="UTF-8"?>
<svg width="480px" height="480px" viewBox="0 0 480 480" version="1.1" xmlns="http://www.w3.org/2000/svg" xmlns:xlink="http://www.w3.org/1999/xlink">
    <title>online-event-registration-new</title>
    <g id="online-event-registration" stroke="none" stroke-width="1" fill="none" fill-rule="evenodd">
        <rect fill="#FFFFFF" x="0" y="0" width="480" height="480"></rect>
        <g id="Group-5" transform="translate(30.000000, 30.000000)">
            <g id="Symbol" transform="translate(122.000000, 0.000000)" fill="#A36B9E">
                <path d="M6.08695652,17.9681405 L9.05386948,15.3301127 L15.0803038,15.3301127 L17.3913043,22.5442834 L6.08695652,17.9681405 Z M1.73913043,8.11594203 L7.80628992,8.72573551 L7.80628992,13.8066825 C7.80628992,13.8559184 7.81345055,13.9041563 7.82608696,13.9503981 L4.93740466,16.2318841 L1.73913043,8.11594203 Z M6.95652174,7.21417069 L1.73913043,6.60324539 L6.95652174,1.80354267 L6.95652174,7.21417069 Z M18.2608696,4.0282913 L13.5591087,8.11594203 L8.69565217,7.5846487 L8.69565217,1.80354267 L18.2608696,4.0282913 Z M9.56521739,13.52657 L9.56521739,9.01771337 L14.3265315,9.53732534 L15.6521739,13.52657 L9.56521739,13.52657 Z M22.6086957,13.52657 L16.9884676,13.52657 L15.6521739,8.93351282 L20.1118575,4.50885668 L22.6086957,13.52657 Z M19.4845983,21.6425121 L17.3913043,15.3301127 L22.6086957,15.3301127 L19.4845983,21.6425121 Z M24.3201467,14.0392423 L21.085627,3.40714918 C21.0114372,3.16338047 20.7975036,2.97277222 20.523904,2.90667138 L8.59072479,0.0248145457 C8.35088359,-0.0332422788 8.09455576,0.0118741692 7.89710875,0.146524033 C7.88376243,0.155267531 7.8723788,0.165409988 7.85981756,0.174852966 L7.81742337,0.137430796 L0.233966471,6.89440579 L0.234751549,6.89510527 C0.21826492,6.90979435 0.20177829,6.92413368 0.186469278,6.94022172 C0.0121820545,7.12558387 -0.0447360702,7.3773966 0.0361269207,7.60857468 L3.63610017,17.9147102 C3.70400938,18.1081164 3.86063236,18.2665486 4.06789284,18.3504862 L18.6938882,24.2838237 C18.7998737,24.3268417 18.9125323,24.3478261 19.0244059,24.3478261 C19.2120394,24.3478261 19.3977102,24.28872 19.5453048,24.1754043 C19.6402992,24.1030082 19.7113487,24.0127753 19.7580609,23.9141486 L19.7592385,23.9148481 L24.1701969,14.6712224 C24.1745148,14.666326 24.1796178,14.6621291 24.1835432,14.6572328 C24.3346706,14.4813136 24.3849156,14.2529334 24.3201467,14.0392423 L24.3201467,14.0392423 Z" id="Fill-2"></path>
                <path d="M34.9203478,16.826087 L34.9203478,13.146087 L36.3603478,11.690087 L39.8003478,16.826087 L42.9523478,16.826087 L38.0563478,9.91408696 L42.5203478,5.40208696 L39.3843478,5.40208696 L34.9203478,10.138087 L34.9203478,5.40208696 L32.4083478,5.40208696 L32.4083478,16.826087 L34.9203478,16.826087 Z M47.2363478,17.034087 C47.8870145,17.034087 48.4763478,16.9327536 49.0043478,16.730087 C49.5323478,16.5274203 49.9830145,16.2367536 50.3563478,15.858087 C50.7296812,15.4794203 51.0176812,15.0234203 51.2203478,14.490087 C51.4230145,13.9567536 51.5243478,13.3594203 51.5243478,12.698087 C51.5243478,12.0367536 51.4230145,11.4367536 51.2203478,10.898087 C51.0176812,10.3594203 50.7296812,9.90075362 50.3563478,9.52208696 C49.9830145,9.14342029 49.5323478,8.85008696 49.0043478,8.64208696 C48.4763478,8.43408696 47.8870145,8.33008696 47.2363478,8.33008696 C46.5856812,8.33008696 45.9990145,8.43408696 45.4763478,8.64208696 C44.9536812,8.85008696 44.5056812,9.14342029 44.1323478,9.52208696 C43.7590145,9.90075362 43.4710145,10.3594203 43.2683478,10.898087 C43.0656812,11.4367536 42.9643478,12.0367536 42.9643478,12.698087 C42.9643478,13.3594203 43.0656812,13.9567536 43.2683478,14.490087 C43.4710145,15.0234203 43.7590145,15.4794203 44.1323478,15.858087 C44.5056812,16.2367536 44.9536812,16.5274203 45.4763478,16.730087 C45.9990145,16.9327536 46.5856812,17.034087 47.2363478,17.034087 Z M47.2363478,15.338087 C46.8523478,15.338087 46.5323478,15.2634203 46.2763478,15.114087 C46.0203478,14.9647536 45.8150145,14.7647536 45.6603478,14.514087 C45.5056812,14.2634203 45.3963478,13.9807536 45.3323478,13.666087 C45.2683478,13.3514203 45.2363478,13.0287536 45.2363478,12.698087 C45.2363478,12.3674203 45.2683478,12.042087 45.3323478,11.722087 C45.3963478,11.402087 45.5056812,11.1194203 45.6603478,10.874087 C45.8150145,10.6287536 46.0203478,10.4287536 46.2763478,10.274087 C46.5323478,10.1194203 46.8523478,10.042087 47.2363478,10.042087 C47.6203478,10.042087 47.9430145,10.1194203 48.2043478,10.274087 C48.4656812,10.4287536 48.6736812,10.6287536 48.8283478,10.874087 C48.9830145,11.1194203 49.0923478,11.402087 49.1563478,11.722087 C49.2203478,12.042087 49.2523478,12.3674203 49.2523478,12.698087 C49.2523478,13.0287536 49.2203478,13.3514203 49.1563478,13.666087 C49.0923478,13.9807536 48.9830145,14.2634203 48.8283478,14.514087 C48.6736812,14.7647536 48.4656812,14.9647536 48.2043478,15.114087 C47.9430145,15.2634203 47.6203478,15.338087 47.2363478,15.338087 Z M54.7683478,16.826087 L54.7683478,12.490087 C54.7683478,11.6474203 54.9070145,11.042087 55.1843478,10.674087 C55.4616812,10.306087 55.9096812,10.122087 56.5283478,10.122087 C57.0723478,10.122087 57.4510145,10.290087 57.6643478,10.626087 C57.8776812,10.962087 57.9843478,11.4714203 57.9843478,12.154087 L57.9843478,16.826087 L60.2563478,16.826087 L60.2563478,11.738087 C60.2563478,11.226087 60.2110145,10.7594203 60.1203478,10.338087 C60.0296812,9.91675362 59.8723478,9.55942029 59.6483478,9.26608696 C59.4243478,8.97275362 59.1176812,8.74342029 58.7283478,8.57808696 C58.3390145,8.41275362 57.8403478,8.33008696 57.2323478,8.33008696 C56.7523478,8.33008696 56.2830145,8.43942029 55.8243478,8.65808696 C55.3656812,8.87675362 54.9923478,9.22608696 54.7043478,9.70608696 L54.6563478,9.70608696 L54.6563478,8.55408696 L52.4963478,8.55408696 L52.4963478,16.826087 L54.7683478,16.826087 Z M63.7563478,16.826087 L63.7563478,12.490087 C63.7563478,11.6474203 63.8950145,11.042087 64.1723478,10.674087 C64.4496812,10.306087 64.8976812,10.122087 65.5163478,10.122087 C66.0603478,10.122087 66.4390145,10.290087 66.6523478,10.626087 C66.8656812,10.962087 66.9723478,11.4714203 66.9723478,12.154087 L66.9723478,16.826087 L69.2443478,16.826087 L69.2443478,11.738087 C69.2443478,11.226087 69.1990145,10.7594203 69.1083478,10.338087 C69.0176812,9.91675362 68.8603478,9.55942029 68.6363478,9.26608696 C68.4123478,8.97275362 68.1056812,8.74342029 67.7163478,8.57808696 C67.3270145,8.41275362 66.8283478,8.33008696 66.2203478,8.33008696 C65.7403478,8.33008696 65.2710145,8.43942029 64.8123478,8.65808696 C64.3536812,8.87675362 63.9803478,9.22608696 63.6923478,9.70608696 L63.6443478,9.70608696 L63.6443478,8.55408696 L61.4843478,8.55408696 L61.4843478,16.826087 L63.7563478,16.826087 Z M74.2963478,17.034087 C75.2350145,17.034087 76.0350145,16.8207536 76.6963478,16.394087 C77.3576812,15.9674203 77.8483478,15.258087 78.1683478,14.266087 L76.1683478,14.266087 C76.0936812,14.522087 75.8910145,14.7647536 75.5603478,14.994087 C75.2296812,15.2234203 74.8350145,15.338087 74.3763478,15.338087 C73.7363478,15.338087 73.2456812,15.1727536 72.9043478,14.842087 C72.5630145,14.5114203 72.3763478,13.978087 72.3443478,13.242087 L78.3123478,13.242087 C78.3550145,12.602087 78.3016812,11.9887536 78.1523478,11.402087 C78.0030145,10.8154203 77.7603478,10.2927536 77.4243478,9.83408696 C77.0883478,9.37542029 76.6590145,9.01008696 76.1363478,8.73808696 C75.6136812,8.46608696 75.0003478,8.33008696 74.2963478,8.33008696 C73.6670145,8.33008696 73.0936812,8.44208696 72.5763478,8.66608696 C72.0590145,8.89008696 71.6136812,9.19675362 71.2403478,9.58608696 C70.8670145,9.97542029 70.5790145,10.4367536 70.3763478,10.970087 C70.1736812,11.5034203 70.0723478,12.0794203 70.0723478,12.698087 C70.0723478,13.338087 70.1710145,13.9247536 70.3683478,14.458087 C70.5656812,14.9914203 70.8456812,15.450087 71.2083478,15.834087 C71.5710145,16.218087 72.0136812,16.514087 72.5363478,16.722087 C73.0590145,16.930087 73.6456812,17.034087 74.2963478,17.034087 Z M76.0403478,11.802087 L72.3443478,11.802087 C72.3550145,11.642087 72.3896812,11.4607536 72.4483478,11.258087 C72.5070145,11.0554203 72.6083478,10.8634203 72.7523478,10.682087 C72.8963478,10.5007536 73.0883478,10.3487536 73.3283478,10.226087 C73.5683478,10.1034203 73.8696812,10.042087 74.2323478,10.042087 C74.7870145,10.042087 75.2003478,10.1914203 75.4723478,10.490087 C75.7443478,10.7887536 75.9336812,11.226087 76.0403478,11.802087 Z M81.6363478,16.826087 L81.6363478,13.978087 L82.5163478,13.130087 L84.7883478,16.826087 L87.5403478,16.826087 L84.0683478,11.594087 L87.1883478,8.55408696 L84.5003478,8.55408696 L81.6363478,11.530087 L81.6363478,5.40208696 L79.3643478,5.40208696 L79.3643478,16.826087 L81.6363478,16.826087 Z M91.0563478,16.906087 C91.2803478,16.906087 91.5096812,16.9007536 91.7443478,16.890087 C91.9790145,16.8794203 92.1923478,16.858087 92.3843478,16.826087 L92.3843478,15.066087 C92.2776812,15.0874203 92.1656812,15.1034203 92.0483478,15.114087 C91.9310145,15.1247536 91.8083478,15.130087 91.6803478,15.130087 C91.2963478,15.130087 91.0403478,15.066087 90.9123478,14.938087 C90.7843478,14.810087 90.7203478,14.554087 90.7203478,14.170087 L90.7203478,10.074087 L92.3843478,10.074087 L92.3843478,8.55408696 L90.7203478,8.55408696 L90.7203478,6.07408696 L88.4483478,6.07408696 L88.4483478,8.55408696 L87.0723478,8.55408696 L87.0723478,10.074087 L88.4483478,10.074087 L88.4483478,14.954087 C88.4483478,15.370087 88.5176812,15.706087 88.6563478,15.962087 C88.7950145,16.218087 88.9843478,16.4154203 89.2243478,16.554087 C89.4643478,16.6927536 89.7416812,16.786087 90.0563478,16.834087 C90.3710145,16.882087 90.7043478,16.906087 91.0563478,16.906087 Z M98.3323478,17.082087 C99.0363478,17.082087 99.6816812,16.9754203 100.268348,16.762087 C100.855014,16.5487536 101.367014,16.2394203 101.804348,15.834087 C102.241681,15.4287536 102.593681,14.938087 102.860348,14.362087 C103.127014,13.786087 103.292348,13.1407536 103.356348,12.426087 L100.924348,12.426087 C100.828348,13.194087 100.564348,13.8127536 100.132348,14.282087 C99.7003478,14.7514203 99.1003478,14.986087 98.3323478,14.986087 C97.7670145,14.986087 97.2870145,14.8767536 96.8923478,14.658087 C96.4976812,14.4394203 96.1776812,14.1487536 95.9323478,13.786087 C95.6870145,13.4234203 95.5083478,13.0154203 95.3963478,12.562087 C95.2843478,12.1087536 95.2283478,11.642087 95.2283478,11.162087 C95.2283478,10.6607536 95.2843478,10.1754203 95.3963478,9.70608696 C95.5083478,9.23675362 95.6870145,8.81808696 95.9323478,8.45008696 C96.1776812,8.08208696 96.4976812,7.78875362 96.8923478,7.57008696 C97.2870145,7.35142029 97.7670145,7.24208696 98.3323478,7.24208696 C98.6416812,7.24208696 98.9376812,7.29275362 99.2203478,7.39408696 C99.5030145,7.49542029 99.7563478,7.63675362 99.9803478,7.81808696 C100.204348,7.99942029 100.391014,8.21008696 100.540348,8.45008696 C100.689681,8.69008696 100.785681,8.95408696 100.828348,9.24208696 L103.260348,9.24208696 C103.185681,8.58075362 103.004348,7.99408696 102.716348,7.48208696 C102.428348,6.97008696 102.063014,6.54075362 101.620348,6.19408696 C101.177681,5.84742029 100.676348,5.58342029 100.116348,5.40208696 C99.5563478,5.22075362 98.9616812,5.13008696 98.3323478,5.13008696 C97.4576812,5.13008696 96.6710145,5.28475362 95.9723478,5.59408696 C95.2736812,5.90342029 94.6843478,6.33008696 94.2043478,6.87408696 C93.7243478,7.41808696 93.3563478,8.05542029 93.1003478,8.78608696 C92.8443478,9.51675362 92.7163478,10.3087536 92.7163478,11.162087 C92.7163478,11.994087 92.8443478,12.770087 93.1003478,13.490087 C93.3563478,14.210087 93.7243478,14.8367536 94.2043478,15.370087 C94.6843478,15.9034203 95.2736812,16.322087 95.9723478,16.626087 C96.6710145,16.930087 97.4576812,17.082087 98.3323478,17.082087 Z M108.344348,17.034087 C108.995014,17.034087 109.584348,16.9327536 110.112348,16.730087 C110.640348,16.5274203 111.091014,16.2367536 111.464348,15.858087 C111.837681,15.4794203 112.125681,15.0234203 112.328348,14.490087 C112.531014,13.9567536 112.632348,13.3594203 112.632348,12.698087 C112.632348,12.0367536 112.531014,11.4367536 112.328348,10.898087 C112.125681,10.3594203 111.837681,9.90075362 111.464348,9.52208696 C111.091014,9.14342029 110.640348,8.85008696 110.112348,8.64208696 C109.584348,8.43408696 108.995014,8.33008696 108.344348,8.33008696 C107.693681,8.33008696 107.107014,8.43408696 106.584348,8.64208696 C106.061681,8.85008696 105.613681,9.14342029 105.240348,9.52208696 C104.867014,9.90075362 104.579014,10.3594203 104.376348,10.898087 C104.173681,11.4367536 104.072348,12.0367536 104.072348,12.698087 C104.072348,13.3594203 104.173681,13.9567536 104.376348,14.490087 C104.579014,15.0234203 104.867014,15.4794203 105.240348,15.858087 C105.613681,16.2367536 106.061681,16.5274203 106.584348,16.730087 C107.107014,16.9327536 107.693681,17.034087 108.344348,17.034087 Z M108.344348,15.338087 C107.960348,15.338087 107.640348,15.2634203 107.384348,15.114087 C107.128348,14.9647536 106.923014,14.7647536 106.768348,14.514087 C106.613681,14.2634203 106.504348,13.9807536 106.440348,13.666087 C106.376348,13.3514203 106.344348,13.0287536 106.344348,12.698087 C106.344348,12.3674203 106.376348,12.042087 106.440348,11.722087 C106.504348,11.402087 106.613681,11.1194203 106.768348,10.874087 C106.923014,10.6287536 107.128348,10.4287536 107.384348,10.274087 C107.640348,10.1194203 107.960348,10.042087 108.344348,10.042087 C108.728348,10.042087 109.051014,10.1194203 109.312348,10.274087 C109.573681,10.4287536 109.781681,10.6287536 109.936348,10.874087 C110.091014,11.1194203 110.200348,11.402087 110.264348,11.722087 C110.328348,12.042087 110.360348,12.3674203 110.360348,12.698087 C110.360348,13.0287536 110.328348,13.3514203 110.264348,13.666087 C110.200348,13.9807536 110.091014,14.2634203 109.936348,14.514087 C109.781681,14.7647536 109.573681,14.9647536 109.312348,15.114087 C109.051014,15.2634203 108.728348,15.338087 108.344348,15.338087 Z M115.876348,16.826087 L115.876348,12.490087 C115.876348,11.6474203 116.015014,11.042087 116.292348,10.674087 C116.569681,10.306087 117.017681,10.122087 117.636348,10.122087 C118.180348,10.122087 118.559014,10.290087 118.772348,10.626087 C118.985681,10.962087 119.092348,11.4714203 119.092348,12.154087 L119.092348,16.826087 L121.364348,16.826087 L121.364348,11.738087 C121.364348,11.226087 121.319014,10.7594203 121.228348,10.338087 C121.137681,9.91675362 120.980348,9.55942029 120.756348,9.26608696 C120.532348,8.97275362 120.225681,8.74342029 119.836348,8.57808696 C119.447014,8.41275362 118.948348,8.33008696 118.340348,8.33008696 C117.860348,8.33008696 117.391014,8.43942029 116.932348,8.65808696 C116.473681,8.87675362 116.100348,9.22608696 115.812348,9.70608696 L115.764348,9.70608696 L115.764348,8.55408696 L113.604348,8.55408696 L113.604348,16.826087 L115.876348,16.826087 Z M125.360348,16.826087 L125.360348,10.074087 L126.928348,10.074087 L126.928348,8.55408696 L125.360348,8.55408696 L125.360348,8.05808696 C125.360348,7.71675362 125.427014,7.47408696 125.560348,7.33008696 C125.693681,7.18608696 125.915014,7.11408696 126.224348,7.11408696 C126.512348,7.11408696 126.789681,7.13008696 127.056348,7.16208696 L127.056348,5.46608696 C126.864348,5.45542029 126.667014,5.44208696 126.464348,5.42608696 C126.261681,5.41008696 126.059014,5.40208696 125.856348,5.40208696 C124.928348,5.40208696 124.235014,5.63675362 123.776348,6.10608696 C123.317681,6.57542029 123.088348,7.17808696 123.088348,7.91408696 L123.088348,8.55408696 L121.728348,8.55408696 L121.728348,10.074087 L123.088348,10.074087 L123.088348,16.826087 L125.360348,16.826087 Z M131.244348,17.034087 C132.183014,17.034087 132.983014,16.8207536 133.644348,16.394087 C134.305681,15.9674203 134.796348,15.258087 135.116348,14.266087 L133.116348,14.266087 C133.041681,14.522087 132.839014,14.7647536 132.508348,14.994087 C132.177681,15.2234203 131.783014,15.338087 131.324348,15.338087 C130.684348,15.338087 130.193681,15.1727536 129.852348,14.842087 C129.511014,14.5114203 129.324348,13.978087 129.292348,13.242087 L135.260348,13.242087 C135.303014,12.602087 135.249681,11.9887536 135.100348,11.402087 C134.951014,10.8154203 134.708348,10.2927536 134.372348,9.83408696 C134.036348,9.37542029 133.607014,9.01008696 133.084348,8.73808696 C132.561681,8.46608696 131.948348,8.33008696 131.244348,8.33008696 C130.615014,8.33008696 130.041681,8.44208696 129.524348,8.66608696 C129.007014,8.89008696 128.561681,9.19675362 128.188348,9.58608696 C127.815014,9.97542029 127.527014,10.4367536 127.324348,10.970087 C127.121681,11.5034203 127.020348,12.0794203 127.020348,12.698087 C127.020348,13.338087 127.119014,13.9247536 127.316348,14.458087 C127.513681,14.9914203 127.793681,15.450087 128.156348,15.834087 C128.519014,16.218087 128.961681,16.514087 129.484348,16.722087 C130.007014,16.930087 130.593681,17.034087 131.244348,17.034087 Z M132.988348,11.802087 L129.292348,11.802087 C129.303014,11.642087 129.337681,11.4607536 129.396348,11.258087 C129.455014,11.0554203 129.556348,10.8634203 129.700348,10.682087 C129.844348,10.5007536 130.036348,10.3487536 130.276348,10.226087 C130.516348,10.1034203 130.817681,10.042087 131.180348,10.042087 C131.735014,10.042087 132.148348,10.1914203 132.420348,10.490087 C132.692348,10.7887536 132.881681,11.226087 132.988348,11.802087 Z M138.376348,16.826087 L138.376348,13.098087 C138.376348,12.7247536 138.413681,12.378087 138.488348,12.058087 C138.563014,11.738087 138.688348,11.458087 138.864348,11.218087 C139.040348,10.978087 139.272348,10.7887536 139.560348,10.650087 C139.848348,10.5114203 140.200348,10.442087 140.616348,10.442087 C140.755014,10.442087 140.899014,10.450087 141.048348,10.466087 C141.197681,10.482087 141.325681,10.5007536 141.432348,10.522087 L141.432348,8.41008696 C141.251014,8.35675362 141.085681,8.33008696 140.936348,8.33008696 C140.648348,8.33008696 140.371014,8.37275362 140.104348,8.45808696 C139.837681,8.54342029 139.587014,8.66342029 139.352348,8.81808696 C139.117681,8.97275362 138.909681,9.15942029 138.728348,9.37808696 C138.547014,9.59675362 138.403014,9.83408696 138.296348,10.090087 L138.264348,10.090087 L138.264348,8.55408696 L136.104348,8.55408696 L136.104348,16.826087 L138.376348,16.826087 Z M145.364348,17.034087 C146.303014,17.034087 147.103014,16.8207536 147.764348,16.394087 C148.425681,15.9674203 148.916348,15.258087 149.236348,14.266087 L147.236348,14.266087 C147.161681,14.522087 146.959014,14.7647536 146.628348,14.994087 C146.297681,15.2234203 145.903014,15.338087 145.444348,15.338087 C144.804348,15.338087 144.313681,15.1727536 143.972348,14.842087 C143.631014,14.5114203 143.444348,13.978087 143.412348,13.242087 L149.380348,13.242087 C149.423014,12.602087 149.369681,11.9887536 149.220348,11.402087 C149.071014,10.8154203 148.828348,10.2927536 148.492348,9.83408696 C148.156348,9.37542029 147.727014,9.01008696 147.204348,8.73808696 C146.681681,8.46608696 146.068348,8.33008696 145.364348,8.33008696 C144.735014,8.33008696 144.161681,8.44208696 143.644348,8.66608696 C143.127014,8.89008696 142.681681,9.19675362 142.308348,9.58608696 C141.935014,9.97542029 141.647014,10.4367536 141.444348,10.970087 C141.241681,11.5034203 141.140348,12.0794203 141.140348,12.698087 C141.140348,13.338087 141.239014,13.9247536 141.436348,14.458087 C141.633681,14.9914203 141.913681,15.450087 142.276348,15.834087 C142.639014,16.218087 143.081681,16.514087 143.604348,16.722087 C144.127014,16.930087 144.713681,17.034087 145.364348,17.034087 Z M147.108348,11.802087 L143.412348,11.802087 C143.423014,11.642087 143.457681,11.4607536 143.516348,11.258087 C143.575014,11.0554203 143.676348,10.8634203 143.820348,10.682087 C143.964348,10.5007536 144.156348,10.3487536 144.396348,10.226087 C144.636348,10.1034203 144.937681,10.042087 145.300348,10.042087 C145.855014,10.042087 146.268348,10.1914203 146.540348,10.490087 C146.812348,10.7887536 147.001681,11.226087 147.108348,11.802087 Z M152.496348,16.826087 L152.496348,12.490087 C152.496348,11.6474203 152.635014,11.042087 152.912348,10.674087 C153.189681,10.306087 153.637681,10.122087 154.256348,10.122087 C154.800348,10.122087 155.179014,10.290087 155.392348,10.626087 C155.605681,10.962087 155.712348,11.4714203 155.712348,12.154087 L155.712348,16.826087 L157.984348,16.826087 L157.984348,11.738087 C157.984348,11.226087 157.939014,10.7594203 157.848348,10.338087 C157.757681,9.91675362 157.600348,9.55942029 157.376348,9.26608696 C157.152348,8.97275362 156.845681,8.74342029 156.456348,8.57808696 C156.067014,8.41275362 155.568348,8.33008696 154.960348,8.33008696 C154.480348,8.33008696 154.011014,8.43942029 153.552348,8.65808696 C153.093681,8.87675362 152.720348,9.22608696 152.432348,9.70608696 L152.384348,9.70608696 L152.384348,8.55408696 L150.224348,8.55408696 L150.224348,16.826087 L152.496348,16.826087 Z M163.132348,17.034087 C164.231014,17.034087 165.132348,16.746087 165.836348,16.170087 C166.540348,15.594087 166.967014,14.7567536 167.116348,13.658087 L164.924348,13.658087 C164.849681,14.170087 164.665681,14.578087 164.372348,14.882087 C164.079014,15.186087 163.660348,15.338087 163.116348,15.338087 C162.764348,15.338087 162.465681,15.258087 162.220348,15.098087 C161.975014,14.938087 161.780348,14.7327536 161.636348,14.482087 C161.492348,14.2314203 161.388348,13.9514203 161.324348,13.642087 C161.260348,13.3327536 161.228348,13.0287536 161.228348,12.730087 C161.228348,12.4207536 161.260348,12.1087536 161.324348,11.794087 C161.388348,11.4794203 161.497681,11.1914203 161.652348,10.930087 C161.807014,10.6687536 162.007014,10.4554203 162.252348,10.290087 C162.497681,10.1247536 162.801681,10.042087 163.164348,10.042087 C164.135014,10.042087 164.695014,10.5167536 164.844348,11.466087 L167.068348,11.466087 C167.036348,10.9327536 166.908348,10.4714203 166.684348,10.082087 C166.460348,9.69275362 166.169681,9.36742029 165.812348,9.10608696 C165.455014,8.84475362 165.049681,8.65008696 164.596348,8.52208696 C164.143014,8.39408696 163.671014,8.33008696 163.180348,8.33008696 C162.508348,8.33008696 161.911014,8.44208696 161.388348,8.66608696 C160.865681,8.89008696 160.423014,9.20208696 160.060348,9.60208696 C159.697681,10.002087 159.423014,10.4767536 159.236348,11.026087 C159.049681,11.5754203 158.956348,12.170087 158.956348,12.810087 C158.956348,13.4287536 159.057681,13.9967536 159.260348,14.514087 C159.463014,15.0314203 159.745681,15.4767536 160.108348,15.850087 C160.471014,16.2234203 160.911014,16.514087 161.428348,16.722087 C161.945681,16.930087 162.513681,17.034087 163.132348,17.034087 Z M171.720348,17.034087 C172.659014,17.034087 173.459014,16.8207536 174.120348,16.394087 C174.781681,15.9674203 175.272348,15.258087 175.592348,14.266087 L173.592348,14.266087 C173.517681,14.522087 173.315014,14.7647536 172.984348,14.994087 C172.653681,15.2234203 172.259014,15.338087 171.800348,15.338087 C171.160348,15.338087 170.669681,15.1727536 170.328348,14.842087 C169.987014,14.5114203 169.800348,13.978087 169.768348,13.242087 L175.736348,13.242087 C175.779014,12.602087 175.725681,11.9887536 175.576348,11.402087 C175.427014,10.8154203 175.184348,10.2927536 174.848348,9.83408696 C174.512348,9.37542029 174.083014,9.01008696 173.560348,8.73808696 C173.037681,8.46608696 172.424348,8.33008696 171.720348,8.33008696 C171.091014,8.33008696 170.517681,8.44208696 170.000348,8.66608696 C169.483014,8.89008696 169.037681,9.19675362 168.664348,9.58608696 C168.291014,9.97542029 168.003014,10.4367536 167.800348,10.970087 C167.597681,11.5034203 167.496348,12.0794203 167.496348,12.698087 C167.496348,13.338087 167.595014,13.9247536 167.792348,14.458087 C167.989681,14.9914203 168.269681,15.450087 168.632348,15.834087 C168.995014,16.218087 169.437681,16.514087 169.960348,16.722087 C170.483014,16.930087 171.069681,17.034087 171.720348,17.034087 Z M173.464348,11.802087 L169.768348,11.802087 C169.779014,11.642087 169.813681,11.4607536 169.872348,11.258087 C169.931014,11.0554203 170.032348,10.8634203 170.176348,10.682087 C170.320348,10.5007536 170.512348,10.3487536 170.752348,10.226087 C170.992348,10.1034203 171.293681,10.042087 171.656348,10.042087 C172.211014,10.042087 172.624348,10.1914203 172.896348,10.490087 C173.168348,10.7887536 173.357681,11.226087 173.464348,11.802087 Z" id="KonnektConference" fill-rule="nonzero"></path>
            </g>
            <g id="Group-4" transform="translate(0.000000, 45.000000)">
                <rect id="Rectangle" fill="#FAF2FA" x="0" y="0" width="420" height="50"></rect>
                <text id="Online-Event-Registr" font-family="HelveticaNeue-Medium, Helvetica Neue" font-size="14" font-weight="400" fill="#15232B">
                    <tspan x="128.037" y="30">Online Event Registration</tspan>
                </text>
            </g>
            <g id="Group-24" transform="translate(9.000000, 115.000000)">
                <rect id="Rectangle" stroke="#BCC1C5" stroke-width="1.16606376" fill="#FFFFFF" x="0.58303188" y="19.0778171" width="188.994718" height="34.3988809" rx="4.66425504"></rect>
                <text id="First-Name" font-family="HelveticaNeue, Helvetica Neue" font-size="11.5592408" font-weight="normal" fill="#BCC1C5">
                    <tspan x="12.1142201" y="40.3811311">First Name</tspan>
                </text>
                <text id="First-Name" font-family="HelveticaNeue-Medium, Helvetica Neue" font-size="9.24739261" font-weight="400" fill="#15232B">
                    <tspan x="0" y="9">First Name</tspan>
                </text>
                <g id="Group-3" transform="translate(0.000000, 64.731748)">
                    <rect id="Rectangle" stroke="#BCC1C5" stroke-width="1.16606376" fill="#FFFFFF" x="0.58303188" y="19.0778171" width="398.171578" height="34.3988809" rx="4.66425504"></rect>
                    <text id="Email-Address" font-family="HelveticaNeue, Helvetica Neue" font-size="11.5592408" font-weight="normal" fill="#BCC1C5">
                        <tspan x="12.1142201" y="40.3811311">Email Address</tspan>
                    </text>
                    <text id="Email-Address" font-family="HelveticaNeue-Medium, Helvetica Neue" font-size="9.24739261" font-weight="400" fill="#15232B">
                        <tspan x="0" y="9">Email Address</tspan>
                    </text>
                </g>
                <g id="Group-3-Copy-2" transform="translate(0.000000, 130.000000)">
                    <rect id="Rectangle" stroke="#BCC1C5" stroke-width="1.16606376" fill="#FFFFFF" x="0.58303188" y="19.0778171" width="398.171578" height="34.3988809" rx="4.66425504"></rect>
                    <text id="Address-Line-1" font-family="HelveticaNeue, Helvetica Neue" font-size="11.5592408" font-weight="normal" fill="#BCC1C5">
                        <tspan x="12.1142201" y="40.3811311">Address Line 1</tspan>
                    </text>
                    <text id="Address-Line-1" font-family="HelveticaNeue-Medium, Helvetica Neue" font-size="9.24739261" font-weight="400" fill="#15232B">
                        <tspan x="0" y="9">Address Line 1</tspan>
                    </text>
                </g>
                <g id="Group-3-Copy-3" transform="translate(0.000000, 195.000000)">
                    <rect id="Rectangle" stroke="#BCC1C5" stroke-width="1.16606376" fill="#FFFFFF" x="0.58303188" y="19.0778171" width="398.171578" height="34.3988809" rx="4.66425504"></rect>
                    <text id="Address-Line-2" font-family="HelveticaNeue, Helvetica Neue" font-size="11.5592408" font-weight="normal" fill="#BCC1C5">
                        <tspan x="12.1142201" y="40.3811311">Address Line 2</tspan>
                    </text>
                    <text id="Address-Line-2" font-family="HelveticaNeue-Medium, Helvetica Neue" font-size="9.24739261" font-weight="400" fill="#15232B">
                        <tspan x="0" y="9">Address Line 2</tspan>
                    </text>
                </g>
                <g id="Group-3-Copy" transform="translate(0.000000, 260.000000)">
                    <g id="Group-6" transform="translate(0.000000, 18.494785)">
                        <rect id="Rectangle" stroke="#BCC1C5" stroke-width="1.16606376" fill="#FFFFFF" x="0.58303188" y="0.58303188" width="178.833936" height="34.3988809" rx="4.66425504"></rect>
                        <text id="City" font-family="HelveticaNeue, Helvetica Neue" font-size="11.5592408" font-weight="normal" fill="#BCC1C5">
                            <tspan x="12.1142201" y="21.8863459">City</tspan>
                        </text>
                    </g>
                    <g id="Group-6-Copy-2" transform="translate(296.000000, 18.000000)">
                        <rect id="Rectangle" stroke="#BCC1C5" stroke-width="1.16606376" fill="#FFFFFF" x="0.58303188" y="0.58303188" width="102.833936" height="34.3988809" rx="4.66425504"></rect>
                        <text id="Zip-Code" font-family="HelveticaNeue, Helvetica Neue" font-size="11.5592408" font-weight="normal" fill="#BCC1C5">
                            <tspan x="12.1142201" y="21.8863459">Zip Code</tspan>
                        </text>
                    </g>
                    <g id="Group-6-Copy" transform="translate(193.000000, 18.000000)">
                        <rect id="Rectangle" stroke="#BCC1C5" stroke-width="1.16606376" fill="#FFFFFF" x="0.58303188" y="0.58303188" width="86.8339362" height="34.3988809" rx="4.66425504"></rect>
                        <text id="State" font-family="HelveticaNeue, Helvetica Neue" font-size="11.5592408" font-weight="normal" fill="#BCC1C5">
                            <tspan x="12.1142201" y="21.8863459">State</tspan>
                        </text>
                        <g id="Group-5-Copy" transform="translate(72.000000, 13.505215)" fill="#15232B">
                            <path d="M3.36639628,0.142478388 L6.10386253,2.87994464 C6.18255117,2.95863328 6.18255117,3.08621277 6.10386253,3.16490141 C6.06607491,3.20268903 6.01482391,3.22391789 5.96138414,3.22391789 L0.486451644,3.22391789 C0.375169101,3.22391789 0.284956776,3.13370557 0.284956776,3.02242303 C0.284956776,2.96898326 0.306185638,2.91773226 0.343973256,2.87994464 L3.08143951,0.142478388 C3.16012815,0.063789747 3.28770764,0.063789747 3.36639628,0.142478388 Z" id="Triangle"></path>
                            <path d="M3.36639628,6.59031418 L6.10386253,9.32778042 C6.18255117,9.40646907 6.18255117,9.53404856 6.10386253,9.6127372 C6.06607491,9.65052482 6.01482391,9.67175368 5.96138414,9.67175368 L0.486451644,9.67175368 C0.375169101,9.67175368 0.284956776,9.58154136 0.284956776,9.47025881 C0.284956776,9.41681905 0.306185638,9.36556804 0.343973256,9.32778042 L3.08143951,6.59031418 C3.16012815,6.51162553 3.28770764,6.51162553 3.36639628,6.59031418 Z" id="Triangle-Copy" transform="translate(3.223918, 8.059795) scale(1, -1) translate(-3.223918, -8.059795) "></path>
                        </g>
                    </g>
                    <text id="City" font-family="HelveticaNeue-Medium, Helvetica Neue" font-size="9.24739261" font-weight="400" fill="#15232B">
                        <tspan x="0" y="9">City</tspan>
                    </text>
                    <text id="State" font-family="HelveticaNeue-Medium, Helvetica Neue" font-size="9.24739261" font-weight="400" fill="#15232B">
                        <tspan x="193" y="9">State</tspan>
                    </text>
                    <text id="Zip-Code" font-family="HelveticaNeue-Medium, Helvetica Neue" font-size="9.24739261" font-weight="400" fill="#15232B">
                        <tspan x="296" y="9">Zip Code</tspan>
                    </text>
                </g>
                <text id="Last-Name" font-family="HelveticaNeue-Medium, Helvetica Neue" font-size="9.24739261" font-weight="400" fill="#15232B">
                    <tspan x="208.066334" y="9">Last Name</tspan>
                </text>
                <g id="Group-2" transform="translate(209.176860, 18.065274)">
                    <rect id="Rectangle" stroke="#BCC1C5" stroke-width="1.16606376" fill="#FFFFFF" x="0.58303188" y="0.58303188" width="188.994718" height="34.3988809" rx="4.66425504"></rect>
                    <text id="Last-Name" font-family="HelveticaNeue, Helvetica Neue" font-size="11.5592408" font-weight="normal" fill="#BCC1C5">
                        <tspan x="16.2714909" y="21.8863459">Last Name</tspan>
                    </text>
                </g>
            </g>
        </g>
    </g>
</svg>